<?xml version="1.0" encoding="utf-8"?>
<!-- Generator: Adobe Illustrator 25.2.0, SVG Export Plug-In . SVG Version: 6.00 Build 0)  -->
<svg version="1.1" id="Camada_1" xmlns="http://www.w3.org/2000/svg" xmlns:xlink="http://www.w3.org/1999/xlink" x="0px" y="0px"
	 viewBox="0 0 800 800" style="enable-background:new 0 0 800 800;" xml:space="preserve">
<style type="text/css">
	.st0{fill:#FEFEFE;}
	.st1{fill:#FE0101;}
	.st2{fill:#010101;}
</style>
<g>
	<g>
		<path class="st0" d="M630.8,529.2c-153.6,0-307.2,0-460.8,0c0-86.4,0-172.8,0-259.2c153.6,0,307.2,0,460.8,0
			C630.8,356.4,630.8,442.8,630.8,529.2z M407.8,389.6c0.9,1.7,45.9,47.2,48.1,48.6c0.2-0.2,0.3-0.5,0.6-0.7
			c14.1-14.1,28.3-28.1,42.2-42.2c14.5-14.8,20.2-32.7,17.1-53.1c-4.1-27-26.1-47.8-53.5-50.6c-18.9-2-35.3,3.8-49.1,16.8
			c-0.8,0.7-1.5,1-2.5,1c-10.2,0-20.3,0-30.5,0c-3.4,0-5.8,2.5-5.6,5.7c0.2,2.9,2.5,4.9,5.8,4.9c16-0.2,31.9,0.2,47.8,1
			c4.9,0.2,8.8-1.4,12.1-4.9c1.6-1.7,3.5-3.1,5.6-4.1c5.9-2.8,12-3.3,18.4-1.9c4.7,1,8.9,3,11.9,6.8c2.5,3.2,3.3,6.7,1.9,10.6
			c-1.3,3.4-3.8,5.8-6.9,7.6c-9.6,5.6-24.6,4.1-31.6-4c-2.9-3.3-6.8-4.6-11.2-4.3c-2.5,0.2-4.9,0.3-7.4,0.4
			c-6.8,0.4-13.6,0.8-20.4,1.1c-0.8,0-1.2,0.4-1.4,1.1c-1,2.5-1.8,5.1-2.5,7.7c-0.3,1.4-0.6,2.8-1,4.2c-4.8,0-9.5,0-14.2,0
			c-8.8,0-17.7,0-26.5,0c-2.8,0-5,2-5.3,4.6c-0.3,2.8,1.4,5.3,4.2,5.8c0.6,0.1,1.3,0.1,1.9,0.1c19.9,0,39.9-0.3,59.8,0.8
			c5,0.3,9.2-1.3,12.6-5c0.8-0.8,1.7-1.4,2.8-1.8c1.8-0.8,3.6-1.2,5.5-1.5c6.9-1,13.8-0.4,20.6,0.8c5.1,1,10.1,2.4,14.7,4.9
			c2,1.1,3.9,2.4,5.2,4.4c0.9,1.3,1.4,2.6,1.2,4.3c-27.6,0-55.2,0.5-82.8,1.9c0.4,3.6,1.4,7,2.3,10.4c-0.2,0.1-0.2,0.1-0.3,0.1
			c-2.8,0-5.7,0-8.5,0c-3,0-5.3,2.4-5.3,5.3c0,2.9,2.3,5.3,5.3,5.2c12.8-0.2,25.5,0.5,38.2,1c0.6,0,1.2,0,1.8-0.1
			c3.7-0.8,6.8-2.7,9.5-5.3c2.8-2.8,6.2-4,10.2-3.5c7.3,0.9,14.7,1.8,22,2.8c2.4,0.3,4.8,0.6,7.1,0.9c0.5,0.1,1,0.3,1,0.9
			c0,0.6-0.5,0.9-1.1,0.8c-0.3,0-0.6,0-0.8,0c-7.3,0-14.6,0-21.8,0c-1.9,0-2.8,0.8-2.9,2.3c0,1.6,0.9,2.4,2.8,2.5
			c2.3,0.1,4.6,0.2,6.9,0.3c5.1,0.2,10.2,0.5,15.3,0.8c0.6,0,1.5-0.1,1.5,0.9c0,0.9-0.8,0.8-1.4,0.8c-2.7,0.1-5.4,0.3-8.1,0.4
			c-4.9,0.2-9.7,0.5-14.6,0.7c-1.6,0.1-2.5,1-2.5,2.5c0,1.4,1,2.3,2.7,2.3c7.5,0,15,0,22.5,0c0.6,0,1.3-0.1,1.4,0.7
			c0.1,0.9-0.7,0.9-1.3,1c-3.1,0.4-6.2,0.8-9.3,1.1c-6,0.7-12,1.3-18,2.2c-4.8,0.8-8.7-0.4-12.1-3.7c-3.8-3.7-8.3-5.5-13.7-5.3
			c-3.5,0.2-7,0.4-10.5,0.6C411.8,389.3,409.8,389.5,407.8,389.6z M464.8,498.5c3.8,0,7.5,0,11.3,0c0-0.8,0-1.6,0-2.4
			c0-6.3,0.1-12.6,0.1-18.9c0-3.6-0.4-7.1-4.6-8.5c2.9-1.4,4.1-2.8,4.8-5.8c0.9-4.2,0.8-8.4,0.1-12.6c-1.1-6.7-3.9-8.9-10.7-8.9
			c-5.2,0-10.4,0-15.6,0c-0.4,0-0.9-0.2-1.2,0.1c0,19,0,38,0,57.1c3.9,0,7.7,0,11.6,0c0-8.7,0-17.3,0-26c0.6,0,1,0.1,1.4,0.1
			c2.1,0.2,2.7,0.9,2.8,3c0.1,0.9,0,1.8,0,2.8C464.8,485,464.8,491.7,464.8,498.5z M284.2,498.5c5.9,0,11.8,0.2,17.6-0.1
			c4.3-0.2,7.5-2.5,9.1-6.6c0.9-2.3,1.5-4.7,1.5-7.2c0-8.9,0-17.7,0-26.6c0-2.1,0-4.1-0.2-6.2c-0.7-6.2-4.3-10-10.5-10.3
			c-5.7-0.3-11.5-0.1-17.3-0.1c-0.1,0-0.1,0.1-0.2,0.1C284.2,460.4,284.2,479.4,284.2,498.5z M402.3,478.7c-0.1,0-0.2,0-0.2,0
			c-1.3-12.4-2.7-24.9-4-37.4c-3.7,0-7.3,0-11,0c2.4,19.1,4.7,38.2,7,57.2c5.3,0,10.5,0,15.7,0c2.4-19.1,4.7-38.1,7-57.2
			c-3.7,0-7.3,0-11,0C404.7,453.8,403.5,466.3,402.3,478.7z M443.2,474.3c0-3.7,0-7.2,0-10.9c-3.6,0-7.1,0-10.7,0c0-3.7,0-7.3,0-11
			c3.7,0,7.4,0,11.1,0c0-3.7,0-7.4,0-11c-7.7,0-15.2,0-22.9,0c0,19.1,0,38.1,0,57.1c7.9,0,15.8,0,23.6,0c0-3.7,0-7.3,0-11.1
			c-4,0-7.9,0-11.8,0c0-4.4,0-8.7,0-13.1C436.1,474.3,439.6,474.3,443.2,474.3z M317.8,441.3c0,19.1,0,38.1,0,57.2
			c7.9,0,15.8,0,23.6,0c0-3.7,0-7.4,0-11.1c-4,0-7.9,0-11.8,0c0-4.4,0-8.7,0-13.1c3.6,0,7.1,0,10.7,0c0-3.6,0-7.2,0-10.8
			c-3.6,0-7.1,0-10.7,0c0-3.7,0-7.3,0-11.1c3.7,0,7.4,0,11.2,0c0-3.8,0-7.4,0-11.1C333,441.3,325.5,441.3,317.8,441.3z M488.3,498.5
			c3.7,0,7.2,0,10.8,0c0-6,0-11.9,0-17.8c0-0.5,0-1,0.1-1.4c2.2-9.4,4.5-18.8,6.7-28.3c0.8-3.2,1.5-6.4,2.3-9.6c-3.9,0-7.6,0-11.4,0
			c-1,6.2-2,12.4-3.1,18.6c-0.1,0-0.1,0-0.2,0c-1-6.2-2.1-12.4-3.1-18.6c-3.8,0-7.5,0-11.3,0c0,0.2,0,0.4,0,0.6
			c2,8.5,4.1,17,6.1,25.6c1.5,6.5,3.5,13,3,19.9C488,491.1,488.3,494.8,488.3,498.5z M345.9,441.4c0,19.1,0,38.1,0,57.1
			c7.8,0,15.5,0,23.2,0c0-3.2,0-6.4,0-9.7c-3.9,0-7.8,0-11.8,0c0-15.9,0-31.6,0-47.4C353.5,441.4,349.8,441.4,345.9,441.4z
			 M372.5,441.4c0,19.1,0,38.1,0,57.1c3.7,0,7.3,0,11,0c0-19.1,0-38.1,0-57.1C379.8,441.4,376.2,441.4,372.5,441.4z M330,419.2
			c0.1,0,0.2,0,0.2-0.1c0,5.7,0,11.5,0,17.2c1.6,0,3.1,0,4.6,0c0-8.6,0-17.2,0-25.7c-2.7,0-5.3,0-7.9,0c-0.7,5-1.4,9.9-2.1,14.9
			c0,0-0.1,0-0.1,0c-0.7-5-1.4-9.9-2.1-14.8c-2.7,0-5.3,0-7.9,0c0,8.6,0,17.2,0,25.7c1.6,0,3.1,0,4.7,0c0-5.7,0-11.3,0-16.9
			c0.1,0,0.1,0,0.2,0c1,5.7,1.9,11.3,2.9,17c1.6,0,3.1,0,4.7,0C328.2,430.6,329.1,424.9,330,419.2z M344.6,410.6
			c0,8.7,0,17.2,0,25.8c1.7,0,3.3,0,5,0c0-3.9,0-7.7,0-11.5c0.1,0,0.1,0,0.2,0c0.8,3.8,1.5,7.7,2.3,11.5c1.8,0,3.4,0,5,0
			c0-8.6,0-17.2,0-25.7c-1.7,0-3.3,0-4.9,0c0,3.7,0,7.4,0,11.1c-0.1,0-0.1,0-0.2,0c-0.7-3.7-1.5-7.5-2.2-11.2
			C348.1,410.6,346.4,410.6,344.6,410.6z M382.2,436.3c1.7,0,3.4,0,5,0c0-8.6,0-17.2,0-25.7c-1.7,0-3.3,0-4.9,0c0,3.7,0,7.4,0,11
			c-0.1,0-0.1,0-0.2,0c-0.7-3.7-1.4-7.4-2.1-11c-1.9,0-3.6,0-5.3,0c0,8.6,0,17.2,0,25.7c1.7,0,3.4,0,5,0c0-3.9,0-7.8,0-11.6
			c0.1,0,0.1,0,0.2,0C380.6,428.6,381.4,432.5,382.2,436.3z M389.9,410.6c0,8.6,0,17.1,0,25.7c2.6,0,5.2,0.1,7.7,0
			c2.5-0.1,3.9-1.4,4.6-3.8c0.5-1.9,0.5-3.9,0.4-5.8c0-3.8,0-7.6-0.2-11.4c-0.1-2.7-1.7-4.4-4.4-4.6
			C395.3,410.5,392.6,410.6,389.9,410.6z M284.9,436.4c2.3,0,4.5,0,6.7,0c3.5,0,5.4-1.5,5.7-5.1c0.5-5.2,0.2-10.4,0.1-15.7
			c0-0.3-0.1-0.6-0.1-0.9c-0.4-1.9-1.3-3.4-3.3-3.9c-3-0.7-6.1-0.2-9.1-0.3C284.9,419.2,284.9,427.8,284.9,436.4z M417.5,423.8
			c0-2.7,0-4.9,0-7.1c-0.1-3.3-1.5-5.5-4.1-6.1c-1.2-0.3-2.4-0.4-3.7-0.2c-2.9,0.5-4.7,2.2-4.9,5.1c-0.3,5.2-0.3,10.4,0,15.5
			c0.2,3.5,2.6,5.5,6.1,5.6c3.6,0.1,5.9-1.9,6.4-5.4C417.7,428.6,417.4,425.9,417.5,423.8z M299.7,423.2
			C299.7,423.2,299.7,423.2,299.7,423.2c0,2.5-0.1,5,0.1,7.4c0.2,3.6,2.4,5.8,5.9,6c3.8,0.2,6.2-1.6,6.6-5.4
			c0.5-5.2,0.3-10.4,0.1-15.7c-0.1-1.7-0.7-3.2-2.2-4.2c-2.4-1.5-4.9-1.5-7.4-0.4c-2.3,1.1-2.9,3.2-3,5.6
			C299.7,418.8,299.7,421,299.7,423.2z M361.6,410.6c-0.8,8.6-1.7,17.2-2.5,25.8c1.7,0,3.4,0,5,0c0.4-1.4,0-2.8,0.5-4.1
			c1,0,1.9-0.1,2.9,0.1c0.3,1.4,0.1,2.7,0.5,4c1.6,0,3.2,0,4.9,0c-0.8-8.6-1.6-17.2-2.5-25.8C367.4,410.6,364.6,410.6,361.6,410.6z
			 M369.2,371.1c-1.1,0-2.2,0-3.4,0c-2.8,0.1-5,2.4-5,5.3c0,2.8,2.2,5.2,5,5.3c2.3,0.1,4.6,0.1,6.8,0c2.8-0.1,5-2.5,5-5.3
			c0-2.8-2.3-5.2-5.1-5.3C371.4,371.1,370.3,371.1,369.2,371.1z M337.2,410.6c0,8.7,0,17.2,0,25.8c1.7,0,3.3,0,4.9,0
			c0-8.6,0-17.2,0-25.8C340.5,410.6,338.9,410.6,337.2,410.6z"/>
		<path class="st1" d="M407.8,389.6c2-0.1,3.9-0.2,5.9-0.3c3.5-0.2,7-0.4,10.5-0.6c5.3-0.3,9.9,1.6,13.7,5.3
			c3.5,3.4,7.4,4.5,12.1,3.7c5.9-1,12-1.5,18-2.2c3.1-0.4,6.2-0.8,9.3-1.1c0.7-0.1,1.4-0.1,1.3-1c-0.1-0.8-0.8-0.7-1.4-0.7
			c-7.5,0-15,0-22.5,0c-1.6,0-2.6-0.8-2.7-2.3c-0.1-1.5,0.9-2.4,2.5-2.5c4.9-0.2,9.7-0.5,14.6-0.7c2.7-0.1,5.4-0.3,8.1-0.4
			c0.6,0,1.5,0.1,1.4-0.8c0-1-0.9-0.8-1.5-0.9c-5.1-0.3-10.2-0.5-15.3-0.8c-2.3-0.1-4.6-0.2-6.9-0.3c-1.9-0.1-2.9-0.9-2.8-2.5
			c0-1.5,1-2.3,2.9-2.3c7.3,0,14.6,0,21.8,0c0.3,0,0.6,0,0.8,0c0.6,0,1.1-0.2,1.1-0.8c0-0.6-0.4-0.8-1-0.9c-2.4-0.3-4.8-0.6-7.1-0.9
			c-7.3-0.9-14.7-1.9-22-2.8c-3.9-0.5-7.3,0.8-10.2,3.5c-2.7,2.6-5.8,4.5-9.5,5.3c-0.6,0.1-1.2,0.2-1.8,0.1
			c-12.7-0.5-25.5-1.1-38.2-1c-3,0-5.3-2.3-5.3-5.2c0-3,2.3-5.3,5.3-5.3c2.8,0,5.7,0,8.5,0c0,0,0.1,0,0.3-0.1
			c-0.9-3.4-1.9-6.8-2.3-10.4c27.6-1.4,55.2-1.9,82.8-1.9c0.2-1.7-0.3-3-1.2-4.3c-1.3-1.9-3.2-3.2-5.2-4.4c-4.6-2.6-9.6-4-14.7-4.9
			c-6.8-1.3-13.7-1.8-20.6-0.8c-1.9,0.3-3.8,0.7-5.5,1.5c-1,0.4-2,1-2.8,1.8c-3.4,3.7-7.5,5.2-12.6,5c-19.9-1.1-39.9-0.8-59.8-0.8
			c-0.6,0-1.3,0-1.9-0.1c-2.8-0.6-4.5-3-4.2-5.8c0.3-2.6,2.5-4.6,5.3-4.6c8.8,0,17.7,0,26.5,0c4.7,0,9.4,0,14.2,0
			c0.3-1.4,0.6-2.8,1-4.2c0.6-2.6,1.5-5.2,2.5-7.7c0.3-0.7,0.6-1,1.4-1.1c6.8-0.3,13.6-0.7,20.4-1.1c2.5-0.1,5-0.2,7.4-0.4
			c4.4-0.3,8.4,1,11.2,4.3c7,8.1,21.9,9.6,31.6,4c3.1-1.8,5.6-4.1,6.9-7.6c1.4-3.9,0.6-7.4-1.9-10.6c-3.1-3.8-7.2-5.8-11.9-6.8
			c-6.3-1.4-12.5-0.8-18.4,1.9c-2.1,1-4,2.3-5.6,4.1c-3.3,3.5-7.2,5.1-12.1,4.9c-15.9-0.7-31.9-1.1-47.8-1c-3.2,0-5.6-2-5.8-4.9
			c-0.2-3.3,2.2-5.7,5.6-5.7c10.2,0,20.3,0,30.5,0c1,0,1.7-0.3,2.5-1c13.8-13,30.2-18.8,49.1-16.8c27.3,2.8,49.4,23.6,53.5,50.6
			c3.1,20.4-2.6,38.3-17.1,53.1c-14,14.2-28.1,28.2-42.2,42.2c-0.2,0.2-0.4,0.5-0.6,0.7C453.7,436.8,408.7,391.3,407.8,389.6z"/>
		<path class="st2" d="M464.8,498.5c0-6.8,0-13.5,0-20.2c0-0.9,0-1.8,0-2.8c-0.1-2.1-0.8-2.7-2.8-3c-0.4,0-0.9-0.1-1.4-0.1
			c0,8.7,0,17.4,0,26c-3.9,0-7.7,0-11.6,0c0-19,0-38,0-57.1c0.3-0.3,0.8-0.1,1.2-0.1c5.2,0,10.4,0,15.6,0c6.7,0,9.5,2.2,10.7,8.9
			c0.7,4.2,0.9,8.4-0.1,12.6c-0.7,3-1.9,4.5-4.8,5.8c4.3,1.4,4.6,4.9,4.6,8.5c0,6.3-0.1,12.6-0.1,18.9c0,0.8,0,1.6,0,2.4
			C472.3,498.5,468.6,498.5,464.8,498.5z M460.7,462.5c0.8,0,1.5,0,2.2,0c1.2,0.1,2-0.5,2.3-1.6c0.7-2.5,0.6-5,0.1-7.5
			c-0.2-0.8-0.7-1.3-1.5-1.4c-1-0.1-2.1,0-3.2,0C460.7,455.5,460.7,459,460.7,462.5z"/>
		<path class="st2" d="M284.2,498.5c0-19.1,0-38,0-57c0.1-0.1,0.1-0.1,0.2-0.1c5.8,0,11.5-0.3,17.3,0.1c6.2,0.4,9.9,4.1,10.5,10.3
			c0.2,2.1,0.2,4.1,0.2,6.2c0,8.9,0.1,17.7,0,26.6c0,2.5-0.5,4.9-1.5,7.2c-1.6,4.1-4.8,6.4-9.1,6.6
			C296,498.7,290.2,498.5,284.2,498.5z M295.9,488.4c0.4,0,0.6,0,0.9,0c3.4,0,4.1-0.7,4.1-4c0-9.5,0-19,0-28.5
			c0-0.8-0.1-1.7-0.2-2.5c-0.1-0.9-0.6-1.5-1.5-1.7c-1.1-0.3-2.2-0.4-3.3-0.2C295.9,463.7,295.9,476,295.9,488.4z"/>
		<path class="st2" d="M402.3,478.7c1.2-12.4,2.4-24.9,3.6-37.4c3.7,0,7.3,0,11,0c-2.4,19.1-4.7,38.1-7,57.2c-5.3,0-10.4,0-15.7,0
			c-2.3-19-4.7-38-7-57.2c3.7,0,7.3,0,11,0c1.3,12.5,2.7,24.9,4,37.4C402.1,478.7,402.2,478.7,402.3,478.7z"/>
		<path class="st2" d="M443.2,474.3c-3.5,0-7.1,0-10.6,0c0,4.4,0,8.7,0,13.1c3.9,0,7.8,0,11.8,0c0,3.7,0,7.4,0,11.1
			c-7.8,0-15.7,0-23.6,0c0-19,0-38,0-57.1c7.6,0,15.2,0,22.9,0c0,3.7,0,7.3,0,11c-3.7,0-7.3,0-11.1,0c0,3.7,0,7.3,0,11
			c3.5,0,7,0,10.7,0C443.2,467.1,443.2,470.6,443.2,474.3z"/>
		<path class="st2" d="M317.8,441.3c7.7,0,15.2,0,22.9,0c0,3.7,0,7.3,0,11.1c-3.7,0-7.4,0-11.2,0c0,3.7,0,7.3,0,11.1
			c3.6,0,7.1,0,10.7,0c0,3.6,0,7.2,0,10.8c-3.5,0-7.1,0-10.7,0c0,4.4,0,8.7,0,13.1c3.9,0,7.8,0,11.8,0c0,3.8,0,7.4,0,11.1
			c-7.9,0-15.7,0-23.6,0C317.8,479.5,317.8,460.5,317.8,441.3z"/>
		<path class="st2" d="M488.3,498.5c0-3.7-0.2-7.4,0-11c0.5-6.9-1.4-13.3-3-19.9c-2-8.5-4.1-17-6.1-25.6c0-0.2,0-0.4,0-0.6
			c3.8,0,7.5,0,11.3,0c1,6.2,2.1,12.4,3.1,18.6c0.1,0,0.1,0,0.2,0c1-6.2,2-12.3,3.1-18.6c3.8,0,7.5,0,11.4,0
			c-0.8,3.2-1.5,6.4-2.3,9.6c-2.2,9.4-4.5,18.8-6.7,28.3c-0.1,0.5-0.1,0.9-0.1,1.4c0,5.9,0,11.8,0,17.8
			C495.5,498.5,492,498.5,488.3,498.5z"/>
		<path class="st2" d="M345.9,441.4c3.8,0,7.6,0,11.4,0c0,15.8,0,31.5,0,47.4c4,0,7.9,0,11.8,0c0,3.3,0,6.5,0,9.7
			c-7.8,0-15.5,0-23.2,0C345.9,479.5,345.9,460.5,345.9,441.4z"/>
		<path class="st2" d="M372.5,441.4c3.6,0,7.3,0,11,0c0,19,0,38.1,0,57.1c-3.7,0-7.3,0-11,0C372.5,479.5,372.5,460.5,372.5,441.4z"
			/>
		<path class="st2" d="M330,419.2c-0.9,5.7-1.8,11.4-2.8,17.2c-1.6,0-3.1,0-4.7,0c-1-5.6-1.9-11.3-2.9-17c-0.1,0-0.1,0-0.2,0
			c0,5.6,0,11.2,0,16.9c-1.6,0-3.1,0-4.7,0c0-8.5,0-17.1,0-25.7c2.6,0,5.2,0,7.9,0c0.7,4.9,1.4,9.9,2.1,14.8c0,0,0.1,0,0.1,0
			c0.7-4.9,1.4-9.9,2.1-14.9c2.6,0,5.2,0,7.9,0c0,8.6,0,17.1,0,25.7c-1.5,0-3,0-4.6,0c0-5.8,0-11.5,0-17.2
			C330.2,419.1,330.1,419.2,330,419.2z"/>
		<path class="st2" d="M344.6,410.6c1.8,0,3.5,0,5.2,0c0.7,3.7,1.5,7.5,2.2,11.2c0.1,0,0.1,0,0.2,0c0-3.7,0-7.4,0-11.1
			c1.7,0,3.2,0,4.9,0c0,8.5,0,17.1,0,25.7c-1.6,0-3.3,0-5,0c-0.8-3.8-1.5-7.6-2.3-11.5c-0.1,0-0.1,0-0.2,0c0,3.8,0,7.6,0,11.5
			c-1.7,0-3.3,0-5,0C344.6,427.8,344.6,419.2,344.6,410.6z"/>
		<path class="st2" d="M382.2,436.3c-0.8-3.9-1.6-7.8-2.4-11.6c-0.1,0-0.1,0-0.2,0c0,3.8,0,7.7,0,11.6c-1.7,0-3.3,0-5,0
			c0-8.5,0-17.1,0-25.7c1.7,0,3.5,0,5.3,0c0.7,3.6,1.4,7.3,2.1,11c0.1,0,0.1,0,0.2,0c0-3.7,0-7.3,0-11c1.7,0,3.2,0,4.9,0
			c0,8.5,0,17.1,0,25.7C385.6,436.3,384,436.3,382.2,436.3z"/>
		<path class="st2" d="M389.9,410.6c2.7,0,5.4-0.2,8.1,0c2.7,0.2,4.3,1.9,4.4,4.6c0.2,3.8,0.2,7.6,0.2,11.4c0,2,0.1,3.9-0.4,5.8
			c-0.7,2.4-2.1,3.7-4.6,3.8c-2.5,0.1-5.1,0-7.7,0C389.9,427.8,389.9,419.2,389.9,410.6z M395.2,415.2c0,5.5,0,11,0,16.5
			c1.7,0,2.1-0.3,2.1-1.6c0-4.4,0-8.9,0-13.3C397.3,415.3,396.8,415,395.2,415.2z"/>
		<path class="st2" d="M284.9,436.4c0-8.6,0-17.2,0-25.9c3.1,0.1,6.1-0.4,9.1,0.3c2,0.4,2.9,2,3.3,3.9c0.1,0.3,0.1,0.6,0.1,0.9
			c0.1,5.2,0.4,10.5-0.1,15.7c-0.4,3.5-2.2,5-5.7,5.1C289.4,436.4,287.2,436.4,284.9,436.4z M290.1,431.7c1.7,0.1,2.2-0.2,2.2-1.4
			c0-4.5,0-9,0-13.5c0-1.5-0.6-1.9-2.2-1.5C290.1,420.7,290.1,426.2,290.1,431.7z"/>
		<path class="st2" d="M417.5,423.8c-0.1,2.2,0.2,4.8-0.2,7.4c-0.5,3.6-2.8,5.5-6.4,5.4c-3.5-0.1-5.9-2.1-6.1-5.6
			c-0.3-5.2-0.3-10.4,0-15.5c0.2-2.9,2-4.6,4.9-5.1c1.3-0.2,2.5-0.1,3.7,0.2c2.6,0.7,4.1,2.8,4.1,6.1
			C417.5,418.9,417.5,421.1,417.5,423.8z M409.9,423.4c0,2,0,4.1,0,6.1c0,0.5,0,1,0.2,1.5c0.2,0.5,0.6,0.8,1.1,0.7
			c0.5,0,0.8-0.3,0.9-0.8c0.1-0.5,0.2-1.1,0.2-1.7c0-4,0-8,0-12.1c0-0.4-0.1-0.8-0.1-1.2c-0.1-0.5-0.4-0.9-0.9-1
			c-0.6,0-1,0.3-1.2,0.8c-0.2,0.4-0.2,0.9-0.2,1.3C409.9,419.3,409.9,421.4,409.9,423.4z"/>
		<path class="st2" d="M299.7,423.2c0-2.2,0-4.4,0-6.6c0-2.4,0.7-4.5,3-5.6c2.5-1.1,5-1.1,7.4,0.4c1.5,0.9,2.2,2.5,2.2,4.2
			c0.2,5.2,0.4,10.5-0.1,15.7c-0.4,3.7-2.9,5.6-6.6,5.4c-3.5-0.2-5.7-2.4-5.9-6C299.7,428.2,299.7,425.7,299.7,423.2
			C299.7,423.2,299.7,423.2,299.7,423.2z M307.2,423.5c0-2.3,0-4.5,0-6.8c0-0.7-0.2-1.5-1.1-1.5c-0.9,0-1.1,0.7-1.2,1.5
			c0,0.2,0,0.4,0,0.6c0,4.1,0,8.2,0,12.3c0,0.6,0.1,1.1,0.3,1.6c0.1,0.4,0.5,0.6,0.9,0.6c0.4,0,0.8-0.2,0.9-0.6
			c0.2-0.5,0.3-1,0.2-1.5C307.2,427.6,307.2,425.5,307.2,423.5z"/>
		<path class="st2" d="M361.6,410.6c3,0,5.8,0,8.8,0c0.8,8.6,1.6,17.1,2.5,25.8c-1.6,0-3.2,0-4.9,0c-0.4-1.3-0.2-2.7-0.5-4
			c-0.9-0.2-1.9-0.1-2.9-0.1c-0.5,1.4-0.1,2.8-0.5,4.1c-1.6,0-3.3,0-5,0C359.9,427.8,360.7,419.2,361.6,410.6z M364.8,428
			c0.8,0,1.5,0,2.3,0c-0.4-4.3-0.8-8.5-1.1-12.8c-0.1,0-0.1,0-0.2,0C365.5,419.4,365.2,423.7,364.8,428z"/>
		<path class="st1" d="M369.2,371.1c1.1,0,2.2,0,3.4,0c2.9,0.1,5.1,2.5,5.1,5.3c0,2.8-2.3,5.2-5,5.3c-2.3,0.1-4.6,0.1-6.8,0
			c-2.8-0.1-5-2.5-5-5.3c0-2.8,2.2-5.1,5-5.3C367,371.1,368.1,371.1,369.2,371.1z"/>
		<path class="st2" d="M337.2,410.6c1.7,0,3.2,0,4.9,0c0,8.6,0,17.1,0,25.8c-1.6,0-3.2,0-4.9,0C337.2,427.8,337.2,419.2,337.2,410.6
			z"/>
		<path class="st0" d="M460.7,462.5c0-3.5,0-7,0-10.5c1.1,0,2.1-0.1,3.2,0c0.8,0.1,1.3,0.6,1.5,1.4c0.5,2.5,0.6,5-0.1,7.5
			c-0.3,1.1-1.1,1.7-2.3,1.6C462.2,462.5,461.5,462.5,460.7,462.5z"/>
		<path class="st0" d="M295.9,488.4c0-12.4,0-24.7,0-37c1.1-0.2,2.2,0,3.3,0.2c0.8,0.2,1.3,0.9,1.5,1.7c0.1,0.8,0.2,1.7,0.2,2.5
			c0,9.5,0,19,0,28.5c0,3.4-0.7,4.1-4.1,4C296.6,488.4,296.3,488.4,295.9,488.4z"/>
		<path class="st0" d="M395.2,415.2c1.6-0.2,2.1,0.1,2.1,1.7c0,4.4,0,8.9,0,13.3c0,1.3-0.4,1.6-2.1,1.6
			C395.2,426.2,395.2,420.7,395.2,415.2z"/>
		<path class="st0" d="M290.1,431.7c0-5.5,0-11,0-16.5c1.6-0.4,2.2,0,2.2,1.5c0,4.5,0,9,0,13.5C292.3,431.5,291.8,431.8,290.1,431.7
			z"/>
		<path class="st0" d="M409.9,423.4c0-2.1,0-4.1,0-6.2c0-0.4,0-0.9,0.2-1.3c0.2-0.5,0.6-0.8,1.2-0.8c0.6,0,0.8,0.4,0.9,1
			c0.1,0.4,0.1,0.8,0.1,1.2c0,4,0,8,0,12.1c0,0.6-0.1,1.1-0.2,1.7c-0.1,0.5-0.4,0.8-0.9,0.8c-0.5,0-0.9-0.2-1.1-0.7
			c-0.2-0.5-0.2-1-0.2-1.5C409.9,427.5,409.9,425.5,409.9,423.4z"/>
		<path class="st0" d="M307.2,423.5c0,2.1,0,4.1,0,6.2c0,0.5,0,1-0.2,1.5c-0.2,0.4-0.5,0.6-0.9,0.6c-0.4,0-0.8-0.2-0.9-0.6
			c-0.2-0.5-0.3-1.1-0.3-1.6c0-4.1,0-8.2,0-12.3c0-0.2,0-0.4,0-0.6c0.1-0.8,0.3-1.5,1.2-1.5c1,0,1.1,0.8,1.1,1.5
			C307.2,418.9,307.2,421.2,307.2,423.5z"/>
		<path class="st0" d="M364.8,428c0.3-4.3,0.6-8.5,0.9-12.8c0.1,0,0.1,0,0.2,0c0.4,4.2,0.7,8.5,1.1,12.8
			C366.3,428,365.6,428,364.8,428z"/>
	</g>
</g>
</svg>
